# xmcd
#
# Track frame offsets:
#	150
#	11344
#	23651
#	37304
#	49327
#	60755
#	75550
#	92603
#	105192
#	120294
#	134392
#	148054
#	162875
#	178561
#	192198
#	213109
#	225134
#	239515
#	252897
#	270207
#
# Disc length: 3792 seconds
# Revision: 0
# Processed by: cddbd v1.5.2PL0 Copyright (c) Steve Scherf et al.
# Submitted via: dBpowerAMP V12.0
#
DISCID=ee0ece14
DTITLE=木村好夫 - 木村好夫 魅惑の昭和歌謡集 Disc2
DYEAR=2012
DGENRE=Japanese Blues
TTITLE0=おまえとふたり
TTITLE1=おやじの海
TTITLE2=夫婦舟
TTITLE3=おもいで酒
TTITLE4=帰ってこいよ
TTITLE5=奥飛騨慕情
TTITLE6=みちのくひとり旅
TTITLE7=大阪しぐれ
TTITLE8=風雪ながれ旅
TTITLE9=花から花へと
TTITLE10=ふたり酒
TTITLE11=望郷酒場
TTITLE12=さざんかの宿
TTITLE13=裏町酒場
TTITLE14=ラヴ・イズ・オーヴァー
TTITLE15=祝い船
TTITLE16=北酒場
TTITLE17=兄弟船
TTITLE18=夢芝居
TTITLE19=浪花恋しぐれ
EXTD=
EXTT0=
EXTT1=
EXTT2=
EXTT3=
EXTT4=
EXTT5=
EXTT6=
EXTT7=
EXTT8=
EXTT9=
EXTT10=
EXTT11=
EXTT12=
EXTT13=
EXTT14=
EXTT15=
EXTT16=
EXTT17=
EXTT18=
EXTT19=
PLAYORDER=
